G04 MADE WITH FRITZING*
G04 WWW.FRITZING.ORG*
G04 DOUBLE SIDED*
G04 HOLES PLATED*
G04 CONTOUR ON CENTER OF CONTOUR VECTOR*
%ASAXBY*%
%FSLAX23Y23*%
%MOIN*%
%OFA0B0*%
%SFA1.0B1.0*%
%ADD10C,0.080000*%
%ADD11C,0.097695*%
%ADD12C,0.097722*%
%ADD13C,0.054000*%
%ADD14C,0.090000*%
%ADD15C,0.088000*%
%ADD16C,0.175354*%
%ADD17C,0.085000*%
%ADD18R,0.079972X0.080000*%
%ADD19R,0.090000X0.090000*%
%LNMASK1*%
G90*
G70*
G54D10*
X400Y1882D03*
X400Y1782D03*
X400Y1682D03*
X400Y1582D03*
X400Y1482D03*
X400Y1382D03*
X400Y1282D03*
X400Y1182D03*
X400Y1082D03*
X400Y982D03*
X400Y882D03*
X400Y782D03*
X400Y682D03*
X400Y582D03*
X400Y482D03*
X1000Y1882D03*
X1000Y1782D03*
X1000Y1682D03*
X1000Y1582D03*
X1000Y1482D03*
X1000Y1382D03*
X1000Y1282D03*
X1000Y1182D03*
X1000Y1082D03*
X1000Y982D03*
X1000Y882D03*
X1000Y782D03*
X1000Y682D03*
X1000Y582D03*
X1000Y482D03*
X1700Y1882D03*
X1700Y1782D03*
X1700Y1682D03*
X1700Y1582D03*
X1700Y1482D03*
X1700Y1382D03*
X1700Y1282D03*
X1700Y1182D03*
X1700Y1082D03*
X1700Y982D03*
X1700Y882D03*
X1700Y782D03*
X1700Y682D03*
X1700Y582D03*
X1700Y482D03*
X2300Y1882D03*
X2300Y1782D03*
X2300Y1682D03*
X2300Y1582D03*
X2300Y1482D03*
X2300Y1382D03*
X2300Y1282D03*
X2300Y1182D03*
X2300Y1082D03*
X2300Y982D03*
X2300Y882D03*
X2300Y782D03*
X2300Y682D03*
X2300Y582D03*
X2300Y482D03*
G54D11*
X3196Y679D03*
G54D12*
X3000Y482D03*
X3000Y581D03*
G54D11*
X3000Y777D03*
G54D12*
X3000Y876D03*
G54D13*
X3295Y482D03*
X3295Y876D03*
X3196Y876D03*
X3000Y679D03*
X3196Y482D03*
G54D14*
X3100Y1720D03*
X3100Y1582D03*
X3100Y1220D03*
X3100Y1082D03*
G54D15*
X1300Y1582D03*
X1300Y1482D03*
X1400Y1182D03*
X1400Y1082D03*
X1400Y982D03*
X1400Y882D03*
X1400Y782D03*
X1400Y682D03*
X1400Y582D03*
X1400Y482D03*
X1300Y1182D03*
X1300Y1082D03*
X1300Y982D03*
X1300Y882D03*
X1300Y782D03*
X1300Y682D03*
X1300Y582D03*
X1300Y482D03*
X1400Y1582D03*
X1400Y1482D03*
G54D16*
X3100Y2082D03*
X3100Y182D03*
X200Y2082D03*
X200Y182D03*
G54D10*
X2800Y582D03*
X2700Y582D03*
X2800Y782D03*
X2700Y782D03*
G54D17*
X800Y382D03*
X800Y782D03*
X2000Y382D03*
X2000Y782D03*
X700Y382D03*
X700Y782D03*
X2100Y1282D03*
X2100Y882D03*
X800Y1282D03*
X800Y882D03*
X2100Y1782D03*
X2100Y1382D03*
X800Y1782D03*
X800Y1382D03*
G54D15*
X500Y1382D03*
X500Y1282D03*
X500Y1182D03*
X500Y1082D03*
X500Y982D03*
X500Y882D03*
X500Y782D03*
X500Y682D03*
X500Y1582D03*
X600Y1582D03*
X1800Y1683D03*
X1900Y1683D03*
G54D17*
X2100Y782D03*
X2100Y382D03*
G54D15*
X1800Y1583D03*
X1900Y1583D03*
X500Y1682D03*
X600Y1682D03*
X2400Y1083D03*
X2400Y983D03*
X2400Y883D03*
X2400Y483D03*
X1100Y482D03*
X1100Y1082D03*
X1100Y982D03*
X1100Y882D03*
X1600Y1882D03*
X1600Y1782D03*
X1600Y1682D03*
X1600Y1582D03*
X1600Y1482D03*
X1600Y1382D03*
X1600Y1282D03*
X1600Y1182D03*
X1600Y1082D03*
X1600Y982D03*
X1600Y882D03*
X1600Y782D03*
X1600Y682D03*
X1600Y582D03*
X1600Y482D03*
X1100Y1682D03*
X1100Y1582D03*
X1100Y1482D03*
X1100Y1382D03*
X2400Y1683D03*
X2400Y1583D03*
X2400Y1483D03*
X2400Y1383D03*
X300Y1882D03*
X300Y1782D03*
X300Y1682D03*
X300Y1582D03*
X300Y1482D03*
X300Y1382D03*
X300Y1282D03*
X300Y1182D03*
X300Y1082D03*
X300Y982D03*
X300Y882D03*
X300Y782D03*
X300Y682D03*
X300Y582D03*
X300Y482D03*
X1800Y1383D03*
X1800Y1283D03*
X1800Y1183D03*
X1800Y1083D03*
X1800Y983D03*
X1800Y883D03*
X1800Y783D03*
X1800Y683D03*
G54D18*
X399Y1882D03*
X1699Y1882D03*
G54D19*
X3100Y1720D03*
X3100Y1220D03*
G04 End of Mask1*
M02*