; NON-PLATED HOLES START AT T1
; THROUGH (PLATED) HOLES START AT T100
M48
INCH
T1C0.044000
T100C0.052972
T101C0.036000
T102C0.038000
T103C0.040000
T104C0.086614
T105C0.053000
T106C0.035000
T107C0.030000
%
T1
X031963Y004822
X032947Y008758
X032947Y004822
X031963Y008758
X029995Y006790
T100
X029995Y007774
X031963Y006790
T101
X016995Y016822
X009995Y004822
X009995Y006822
X022995Y010822
X009995Y017822
X016995Y012822
X009995Y011822
X009995Y012822
X003995Y005822
X022995Y004822
X016995Y007822
X003995Y008822
X022995Y006822
X003995Y006822
X003995Y017822
X022995Y011822
X016995Y010822
X016995Y014822
X009995Y016822
X016995Y009822
X003995Y015822
X016995Y017822
X003995Y014822
X009995Y009822
X003995Y011822
X022995Y012822
X009995Y015822
X016995Y013822
X022995Y005822
X003995Y004822
X016995Y008822
X003995Y007822
X016995Y018822
X022995Y008822
X009995Y007822
X022995Y017822
X016995Y005822
X003995Y012822
X022995Y007822
X022995Y009822
X016995Y004822
X009995Y018822
X016995Y011822
X009995Y005822
X022995Y013822
X009995Y010822
X003995Y013822
X003995Y016822
X016995Y006822
X022995Y016822
X009995Y014822
X016995Y015822
X022995Y015822
X003995Y009822
X022995Y018822
X003995Y018822
X009995Y008822
X022995Y014822
X009995Y013822
X003995Y010822
T102
X002995Y007822
X013995Y011822
X002995Y015822
X004995Y007822
X004995Y009822
X015995Y009822
X012995Y014822
X015995Y007822
X004995Y008822
X002995Y012822
X019000Y016832
X005995Y016822
X018000Y015832
X010995Y004822
X024000Y010832
X018000Y012832
X002995Y005822
X002995Y016822
X018000Y007832
X002995Y009822
X015995Y018822
X004995Y016822
X005995Y015822
X012995Y010822
X015995Y010822
X004995Y015822
X015995Y011822
X010995Y010822
X018000Y013832
X024000Y015832
X015995Y004822
X012995Y008822
X002995Y011822
X002995Y004822
X015995Y005822
X015995Y015822
X015995Y017822
X024000Y014832
X004995Y010822
X018000Y006832
X013995Y005822
X013995Y006822
X024000Y009832
X002995Y006822
X013995Y008822
X002995Y008822
X010995Y013822
X015995Y008822
X002995Y010822
X024000Y004832
X010995Y014822
X012995Y009822
X018000Y010832
X015995Y006822
X018000Y008832
X012995Y004822
X002995Y013822
X015995Y013822
X010995Y015822
X004995Y013822
X013995Y007822
X012995Y015822
X012995Y006822
X013995Y009822
X024000Y008832
X004995Y012822
X012995Y007822
X015995Y016822
X012995Y005822
X012995Y011822
X010995Y008822
X015995Y012822
X018000Y011832
X024000Y013832
X013995Y004822
X018000Y016832
X015995Y014822
X002995Y017822
X019000Y015832
X024000Y016832
X004995Y006822
X002995Y018822
X004995Y011822
X013995Y010822
X013995Y015822
X013995Y014822
X018000Y009832
X010995Y016822
X010995Y009822
X002995Y014822
T103
X030995Y012200
X030995Y015822
X030995Y017200
X030995Y010822
T104
X001995Y001822
X030995Y001822
X001995Y020822
X030995Y020822
T105
X029995Y008758
X029995Y005806
X029995Y004822
T106
X020995Y012822
X019995Y007822
X020995Y008822
X020995Y003822
X007995Y008822
X007995Y007822
X020995Y017822
X007995Y012822
X007995Y013822
X006995Y003822
X020995Y013822
X007995Y017822
X007995Y003822
X019995Y003822
X020995Y007822
X006995Y007822
T107
X026995Y007822
X026995Y005822
X027996Y007822
X027996Y005822
T00
M30
