G04 MADE WITH FRITZING*
G04 WWW.FRITZING.ORG*
G04 DOUBLE SIDED*
G04 HOLES PLATED*
G04 CONTOUR ON CENTER OF CONTOUR VECTOR*
%ASAXBY*%
%FSLAX23Y23*%
%MOIN*%
%OFA0B0*%
%SFA1.0B1.0*%
%ADD10C,0.078000*%
%ADD11C,0.070000*%
%ADD12C,0.087695*%
%ADD13C,0.087722*%
%ADD14C,0.080000*%
%ADD15C,0.165354*%
%ADD16C,0.075000*%
%ADD17R,0.069972X0.070000*%
%ADD18R,0.080000X0.080000*%
%ADD19C,0.048000*%
%ADD20C,0.024000*%
%ADD21C,0.032000*%
%ADD22C,0.011111*%
%ADD23R,0.001000X0.001000*%
%LNCOPPER0*%
G90*
G70*
G54D10*
X500Y1582D03*
X600Y1582D03*
G54D11*
X400Y1882D03*
X400Y1782D03*
X400Y1682D03*
X400Y1582D03*
X400Y1482D03*
X400Y1382D03*
X400Y1282D03*
X400Y1182D03*
X400Y1082D03*
X400Y982D03*
X400Y882D03*
X400Y782D03*
X400Y682D03*
X400Y582D03*
X400Y482D03*
X1000Y1882D03*
X1000Y1782D03*
X1000Y1682D03*
X1000Y1582D03*
X1000Y1482D03*
X1000Y1382D03*
X1000Y1282D03*
X1000Y1182D03*
X1000Y1082D03*
X1000Y982D03*
X1000Y882D03*
X1000Y782D03*
X1000Y682D03*
X1000Y582D03*
X1000Y482D03*
X1700Y1882D03*
X1700Y1782D03*
X1700Y1682D03*
X1700Y1582D03*
X1700Y1482D03*
X1700Y1382D03*
X1700Y1282D03*
X1700Y1182D03*
X1700Y1082D03*
X1700Y982D03*
X1700Y882D03*
X1700Y782D03*
X1700Y682D03*
X1700Y582D03*
X1700Y482D03*
X2300Y1882D03*
X2300Y1782D03*
X2300Y1682D03*
X2300Y1582D03*
X2300Y1482D03*
X2300Y1382D03*
X2300Y1282D03*
X2300Y1182D03*
X2300Y1082D03*
X2300Y982D03*
X2300Y882D03*
X2300Y782D03*
X2300Y682D03*
X2300Y582D03*
X2300Y482D03*
G54D12*
X3196Y679D03*
G54D13*
X3000Y482D03*
X3000Y581D03*
G54D12*
X3000Y777D03*
G54D13*
X3000Y876D03*
G54D14*
X3100Y1720D03*
X3100Y1582D03*
X3100Y1220D03*
X3100Y1082D03*
G54D10*
X1600Y1882D03*
X1600Y1782D03*
X1600Y1682D03*
X1600Y1582D03*
X1600Y1482D03*
X1600Y1382D03*
X1600Y1282D03*
X1600Y1182D03*
X1600Y1082D03*
X1600Y982D03*
X1600Y882D03*
X1600Y782D03*
X1600Y682D03*
X1600Y582D03*
X1600Y482D03*
X1300Y1582D03*
X1300Y1482D03*
X2400Y1683D03*
X2400Y1583D03*
X2400Y1483D03*
X2400Y1383D03*
X300Y1882D03*
X300Y1782D03*
X300Y1682D03*
X300Y1582D03*
X300Y1482D03*
X300Y1382D03*
X300Y1282D03*
X300Y1182D03*
X300Y1082D03*
X300Y982D03*
X300Y882D03*
X300Y782D03*
X300Y682D03*
X300Y582D03*
X300Y482D03*
X1100Y1682D03*
X1100Y1582D03*
X1100Y1482D03*
X1100Y1382D03*
X2400Y483D03*
X1400Y1182D03*
X1400Y1082D03*
X1400Y982D03*
X1400Y882D03*
X1400Y782D03*
X1400Y682D03*
X1400Y582D03*
X1400Y482D03*
X2400Y1083D03*
X2400Y983D03*
X2400Y883D03*
X1100Y1082D03*
X1100Y982D03*
X1100Y882D03*
X1100Y482D03*
X500Y1382D03*
X500Y1282D03*
X500Y1182D03*
X500Y1082D03*
X500Y982D03*
X500Y882D03*
X500Y782D03*
X500Y682D03*
X1800Y1383D03*
X1800Y1283D03*
X1800Y1183D03*
X1800Y1083D03*
X1800Y983D03*
X1800Y883D03*
X1800Y783D03*
X1800Y683D03*
X1300Y1182D03*
X1300Y1082D03*
X1300Y982D03*
X1300Y882D03*
X1300Y782D03*
X1300Y682D03*
X1300Y582D03*
X1300Y482D03*
X1400Y1582D03*
X1400Y1482D03*
X1800Y1583D03*
X1900Y1583D03*
X500Y1682D03*
X600Y1682D03*
X1800Y1683D03*
X1900Y1683D03*
G54D15*
X3100Y2082D03*
X3100Y182D03*
X200Y2082D03*
X200Y182D03*
G54D11*
X2800Y582D03*
X2700Y582D03*
X2800Y782D03*
X2700Y782D03*
G54D16*
X2100Y782D03*
X2100Y382D03*
X800Y382D03*
X800Y782D03*
X2000Y382D03*
X2000Y782D03*
X700Y382D03*
X700Y782D03*
X2100Y1282D03*
X2100Y882D03*
X800Y1282D03*
X800Y882D03*
X2100Y1782D03*
X2100Y1382D03*
X800Y1782D03*
X800Y1382D03*
G54D17*
X399Y1882D03*
X1699Y1882D03*
G54D18*
X3100Y1720D03*
X3100Y1220D03*
G54D19*
X1899Y1883D02*
X2276Y1882D01*
D02*
X1900Y1708D02*
X1899Y1883D01*
G54D20*
D02*
X1830Y1683D02*
X1870Y1683D01*
G54D21*
D02*
X1870Y1583D02*
X1830Y1583D01*
G54D22*
D02*
X1775Y1583D02*
X1723Y1583D01*
G54D20*
D02*
X569Y1582D02*
X530Y1582D01*
G54D19*
D02*
X899Y1882D02*
X970Y1882D01*
D02*
X699Y1883D02*
X899Y1882D01*
D02*
X630Y1682D02*
X699Y1681D01*
D02*
X699Y1681D02*
X699Y1883D01*
D02*
X2276Y1782D02*
X2123Y1782D01*
D02*
X3099Y684D02*
X3099Y882D01*
D02*
X3099Y882D02*
X3200Y983D01*
D02*
X3200Y983D02*
X3200Y1582D01*
D02*
X3200Y1582D02*
X3131Y1582D01*
D02*
X3159Y681D02*
X3099Y684D01*
D02*
X2700Y1882D02*
X2323Y1882D01*
D02*
X3060Y1736D02*
X2700Y1882D01*
D02*
X2700Y1882D02*
X2700Y1882D01*
D02*
X2600Y1782D02*
X2340Y1782D01*
D02*
X3060Y1598D02*
X2600Y1782D01*
D02*
X1400Y1883D02*
X1029Y1882D01*
G54D20*
D02*
X3075Y1228D02*
X2900Y1283D01*
D02*
X2900Y1283D02*
X2600Y1283D01*
D02*
X2600Y1283D02*
X2500Y1283D01*
D02*
X2500Y1283D02*
X2299Y1281D01*
D02*
X2299Y1281D02*
X2297Y1259D01*
D02*
X3077Y1094D02*
X2900Y1182D01*
D02*
X2600Y1182D02*
X2500Y1183D01*
D02*
X2500Y1183D02*
X2299Y1181D01*
D02*
X2900Y1182D02*
X2600Y1182D01*
D02*
X2299Y1181D02*
X2297Y1159D01*
G54D19*
D02*
X1281Y1782D02*
X1029Y1782D01*
G54D20*
D02*
X1330Y1582D02*
X1369Y1582D01*
D02*
X1369Y1482D02*
X1330Y1482D01*
D02*
X1200Y282D02*
X2199Y283D01*
D02*
X2199Y283D02*
X2199Y1081D01*
D02*
X2199Y1081D02*
X2283Y1166D01*
D02*
X1023Y1182D02*
X1200Y1182D01*
D02*
X1200Y1182D02*
X1200Y282D01*
D02*
X1023Y1282D02*
X1500Y1283D01*
D02*
X1900Y382D02*
X1898Y1182D01*
D02*
X1898Y1182D02*
X2199Y1183D01*
D02*
X2199Y1183D02*
X2283Y1266D01*
D02*
X1500Y1283D02*
X1501Y381D01*
D02*
X1501Y381D02*
X1900Y382D01*
G54D19*
D02*
X1900Y1981D02*
X1400Y1983D01*
D02*
X1900Y1683D02*
X1900Y1981D01*
D02*
X1400Y1983D02*
X1400Y1883D01*
D02*
X1798Y1683D02*
X1900Y1683D01*
D02*
X1770Y1683D02*
X1798Y1683D01*
D02*
X1318Y1782D02*
X1499Y1784D01*
D02*
X1499Y1784D02*
X1499Y1581D01*
D02*
X1499Y1581D02*
X1558Y1582D01*
D02*
X1558Y1582D02*
X1441Y1582D01*
D02*
X1001Y1784D02*
X1019Y1804D01*
D02*
X828Y1782D02*
X1001Y1784D01*
D02*
X2898Y382D02*
X2898Y82D01*
D02*
X3101Y382D02*
X2898Y382D01*
D02*
X3101Y684D02*
X3101Y382D01*
D02*
X2898Y82D02*
X399Y82D01*
D02*
X399Y82D02*
X399Y382D01*
D02*
X3159Y681D02*
X3101Y684D01*
D02*
X100Y1581D02*
X269Y1582D01*
D02*
X100Y382D02*
X100Y1581D01*
D02*
X399Y382D02*
X100Y382D01*
D02*
X3201Y1883D02*
X3000Y1882D01*
D02*
X3000Y1882D02*
X2900Y1982D01*
D02*
X3201Y1581D02*
X3201Y1883D01*
D02*
X2900Y1982D02*
X2898Y2083D01*
D02*
X3131Y1582D02*
X3201Y1581D01*
D02*
X2898Y2083D02*
X399Y2083D01*
D02*
X399Y2083D02*
X399Y1983D01*
D02*
X299Y1981D02*
X100Y1882D01*
D02*
X399Y1983D02*
X299Y1981D01*
D02*
X100Y1882D02*
X100Y1581D01*
D02*
X100Y1581D02*
X269Y1582D01*
G54D21*
D02*
X330Y482D02*
X370Y482D01*
D02*
X330Y582D02*
X370Y582D01*
D02*
X330Y682D02*
X370Y682D01*
G54D20*
D02*
X469Y682D02*
X429Y682D01*
G54D21*
D02*
X330Y782D02*
X370Y782D01*
G54D20*
D02*
X469Y782D02*
X429Y782D01*
G54D21*
D02*
X330Y882D02*
X370Y882D01*
G54D20*
D02*
X469Y882D02*
X429Y882D01*
G54D21*
D02*
X330Y982D02*
X370Y982D01*
G54D20*
D02*
X469Y982D02*
X429Y982D01*
G54D21*
D02*
X330Y1082D02*
X370Y1082D01*
G54D20*
D02*
X469Y1082D02*
X429Y1082D01*
G54D21*
D02*
X330Y1182D02*
X370Y1182D01*
G54D20*
D02*
X469Y1182D02*
X429Y1182D01*
G54D21*
D02*
X330Y1282D02*
X370Y1282D01*
G54D20*
D02*
X469Y1282D02*
X429Y1282D01*
D02*
X469Y1382D02*
X429Y1382D01*
G54D21*
D02*
X330Y1382D02*
X370Y1382D01*
D02*
X330Y1482D02*
X370Y1482D01*
D02*
X330Y1682D02*
X370Y1682D01*
D02*
X330Y1782D02*
X370Y1782D01*
D02*
X330Y1882D02*
X370Y1882D01*
D02*
X1069Y1682D02*
X1029Y1682D01*
D02*
X1069Y1582D02*
X1029Y1582D01*
D02*
X1069Y1482D02*
X1029Y1482D01*
D02*
X1069Y1382D02*
X1029Y1382D01*
D02*
X1069Y1082D02*
X1029Y1082D01*
D02*
X1069Y982D02*
X1029Y982D01*
D02*
X1069Y882D02*
X1029Y882D01*
D02*
X1069Y482D02*
X1029Y482D01*
D02*
X1676Y782D02*
X1624Y782D01*
D02*
X1676Y682D02*
X1624Y682D01*
D02*
X1676Y582D02*
X1624Y582D01*
D02*
X1676Y482D02*
X1624Y482D01*
D02*
X1775Y683D02*
X1723Y683D01*
D02*
X1775Y783D02*
X1723Y783D01*
D02*
X1676Y882D02*
X1624Y882D01*
D02*
X1775Y883D02*
X1723Y883D01*
D02*
X1676Y982D02*
X1624Y982D01*
D02*
X1775Y983D02*
X1723Y983D01*
D02*
X1775Y1083D02*
X1723Y1083D01*
D02*
X1676Y1082D02*
X1624Y1082D01*
D02*
X1676Y1182D02*
X1624Y1182D01*
D02*
X1775Y1183D02*
X1723Y1183D01*
D02*
X1676Y1282D02*
X1624Y1282D01*
D02*
X1775Y1283D02*
X1723Y1282D01*
D02*
X1676Y1382D02*
X1624Y1382D01*
D02*
X1775Y1383D02*
X1723Y1382D01*
D02*
X1624Y1582D02*
X1676Y1582D01*
D02*
X1676Y1682D02*
X1624Y1682D01*
D02*
X1676Y1782D02*
X1624Y1782D01*
D02*
X1676Y1882D02*
X1624Y1882D01*
D02*
X2375Y1683D02*
X2323Y1683D01*
D02*
X2375Y1583D02*
X2323Y1583D01*
D02*
X2375Y1483D02*
X2323Y1482D01*
D02*
X2375Y1083D02*
X2323Y1083D01*
D02*
X2375Y983D02*
X2323Y983D01*
D02*
X2375Y883D02*
X2323Y883D01*
D02*
X2375Y483D02*
X2323Y483D01*
D02*
X330Y1582D02*
X370Y1582D01*
D02*
X530Y1682D02*
X569Y1682D01*
D02*
X1770Y1583D02*
X1729Y1583D01*
D02*
X1676Y1482D02*
X1624Y1482D01*
G54D20*
D02*
X2100Y854D02*
X2100Y811D01*
G54D23*
D02*
G04 End of Copper0*
M02*